<?xml version="1.0" encoding="utf-8"?>
<!-- Generator: Adobe Illustrator 26.5.0, SVG Export Plug-In . SVG Version: 6.00 Build 0)  -->
<svg version="1.1" id="Layer_1" xmlns="http://www.w3.org/2000/svg" xmlns:xlink="http://www.w3.org/1999/xlink" x="0px" y="0px"
	 viewBox="0 0 1200 1200" style="enable-background:new 0 0 1200 1200;" xml:space="preserve">
<style type="text/css">
	.st0{fill:#FFFFFF;}
	.st1{fill:#001E6C;}
	.st2{font-family:'Kanit-SemiBold';}
	.st3{font-size:167.2328px;}
	.st4{fill:#289EFD;}
	.st5{fill-rule:evenodd;clip-rule:evenodd;fill:#FFFFFF;}
	.st6{font-size:38.6563px;}
	.st7{letter-spacing:-1;}
</style>
<rect width="1200" height="1200"/>
<rect class="st0" width="1200" height="1200"/>
<text transform="matrix(0.9421 0.3354 -0.3354 0.9421 620.1534 338.9685)" class="st1 st2 st3">P</text>
<text transform="matrix(0.1791 -0.9838 0.9838 0.1791 350.3468 586.6963)" class="st1 st2 st3">B</text>
<text transform="matrix(0.5455 -0.8381 0.8381 0.5455 372.7539 481.2369)" class="st1 st2 st3">L</text>
<text transform="matrix(0.8305 -0.557 0.557 0.8305 412.6871 413.5622)" class="st1 st2 st3">O</text>
<text transform="matrix(0.9936 -0.1128 0.1128 0.9936 504.5726 350.6528)" class="st1 st2 st3">O</text>
<text transform="matrix(0.796 0.6053 -0.6053 0.796 718.0665 380.3663)" class="st1 st2 st3">.</text>
<text transform="matrix(0.5952 0.8036 -0.8036 0.5952 752.2 403.2278)" class="st1 st2 st3">T</text>
<text transform="matrix(0.2084 0.978 -0.978 0.2084 805.7363 469.5956)" class="st1 st2 st3">O</text>
<path class="st4" d="M665.33,614.56c-26.57,0-48.1-21.52-48.1-48.1c0-26.57,21.52-48.1,48.1-48.1s48.1,21.52,48.1,48.1
	C713.42,593.04,691.9,614.56,665.33,614.56z M530.65,614.56c-26.57,0-48.1-21.52-48.1-48.1c0-26.57,21.52-48.1,48.1-48.1
	c26.57,0,48.1,21.52,48.1,48.1C578.75,593.04,557.22,614.56,530.65,614.56z M597.99,383.69c-122.22,0-221.26,98.7-221.26,220.44
	v211.39c4.57,6.66,0.17-58.25,7.91-50.94c7.74,7.33,17.65,69.69,33,74.96c15.34,5.24,3.9-54.69,23.9-49.47
	c20.03,5.24,30.93,63.27,53.99,66.31c23.06,3.03,15.54-53.44,43.62-51.44c28.09,2,31.14,57.77,58.82,57.77
	c27.66,0,30.73-55.77,58.82-57.79c28.09-2.02,20.59,54.5,43.65,51.49c23.06-3.03,34.01-61.11,54.01-66.32
	c20.03-5.22,8.47,54.74,23.83,49.49c15.37-5.24,25.3-67.62,33.04-74.96c7.74-7.34,3.32,57.57,7.89,50.94l0.02-211.42
	C819.24,482.4,720.2,383.7,597.99,383.69L597.99,383.69z"/>
<path class="st5" d="M656.95,631.87c-7.2,4.59-45.02,16.51-69.47,16.35c-32.67-0.22-43.05-6.84-48.18-11.12
	c1.68-1.05,3.43-1.85,5.05-2.22c1.27-0.31,2.39-0.36,3.21-0.11c1.78,0.53,3.66-0.47,4.2-2.25c0.54-1.78-0.47-3.66-2.25-4.2
	c-2.02-0.61-4.33-0.57-6.7-0.01c-3.47,0.82-7.26,2.81-10.4,5.47c-3.2,2.71-5.86,6.19-7,9.94l-0.06,0.25
	c-0.62,2.19-0.75,4.48-0.22,6.75c0.43,1.81,2.25,2.93,4.06,2.51c1.81-0.43,2.93-2.25,2.5-4.06c-0.26-1.09-0.18-2.22,0.12-3.33
	l0.05-0.16c0.46-1.52,1.39-3.02,2.56-4.4c7.03,7.23,27.22,17.66,52.27,19.51c20.44,1.51,69.68-3.52,82.3-15.17
	C673.15,641.78,665.2,626.61,656.95,631.87L656.95,631.87z"/>
<text transform="matrix(1 0 0 1 440.6678 936.2178)" class="st4 st2 st6">URL</text>
<text transform="matrix(1 0 0 1 525.2091 936.2178)"><tspan x="0" y="0" class="st4 st2 st6">SHO</tspan><tspan x="74.8" y="0" class="st4 st2 st6 st7">R</tspan><tspan x="97.68" y="0" class="st4 st2 st6">TENING</tspan></text>
<ellipse transform="matrix(0.7071 -0.7071 0.7071 0.7071 -245.6955 540.3944)" class="st1" cx="529.47" cy="566.78" rx="29.42" ry="29.42"/>
<ellipse transform="matrix(0.2298 -0.9732 0.9732 0.2298 -39.605 1083.5128)" class="st1" cx="664.74" cy="566.78" rx="29.42" ry="29.42"/>
<ellipse transform="matrix(0.2298 -0.9732 0.9732 0.2298 -116.2152 955.4753)" class="st0" cx="545.54" cy="551.16" rx="24.99" ry="24.99"/>
<ellipse transform="matrix(0.2298 -0.9732 0.9732 0.2298 -14.8286 1083.5828)" class="st0" cx="677.17" cy="551.16" rx="24.99" ry="24.99"/>
<path class="st1" d="M576.76,692.54c-0.35,0.31-0.66,0.67-0.9,1.08l-19.98,33.63c-3.07,5.18-4.11,11.31-2.91,17.21
	c0.07,0.33,0.17,0.65,0.31,0.95c0,0,20.63,45.46,26.95,57.9l0,0l12.15,23.88c0.52,1.09,1.46,1.91,2.59,2.3
	c1.14,0.39,2.39,0.3,3.46-0.25s1.88-1.5,2.24-2.65c0.36-1.15,0.24-2.39-0.33-3.45l-12.14-23.88c-5.81-11.44-26.01-55.87-26.48-56.9
	c-0.66-3.62-0.05-7.38,1.84-10.55l19.62-33.02l17.2-15.07c2-1.75,4.9-1.48,6.54,0.63l0,0c1.52,1.95,1.24,4.65-0.66,6.25l-15.36,12.9
	c-0.55,0.46-0.98,1.05-1.26,1.71l-8.48,20.5c-0.01,0.03-0.02,0.07-0.04,0.1c-3.17,8.2,0.06,16.88,6.65,22.03
	c5.37,4.2,11.86,4,16.48,2.11c2.31-0.94,4.27-2.23,5.85-3.66c1.58-1.43,2.84-2.82,3.57-4.99c0.2-0.58,0.27-1.2,0.22-1.81
	c-0.81-9.46-1.39-17.33,3.47-23.55c2.87-3.68,6.87-4.72,9.15-4.51c0.69,0.06,0.65,0.11,0.85,0.21c-5.74,12.07-4.73,25.99,0.29,39.93
	c3.76,16.61-9.42,30.06-9.42,30.06c-1.3,1.31-1.68,3.29-0.93,4.98l6.16,13.87c0.46,1.1,1.36,1.98,2.47,2.42
	c1.12,0.44,2.36,0.42,3.46-0.07c1.1-0.49,1.95-1.39,2.37-2.51c0.42-1.12,0.37-2.37-0.14-3.46l-5.01-11.28
	c4.17-4.98,13.68-18.55,9.74-35.97c-0.04-0.19-0.1-0.37-0.17-0.56c-4.72-12.84-5.31-24.35-0.68-33.83l-0.09,0.18
	c1.55-2.84,1.4-6.82-0.56-9.23c-1.96-2.41-4.71-3.35-7.5-3.62c-5.59-0.53-12.3,1.82-17.05,7.9c-6.92,8.85-6.14,19.2-5.37,28.3
	c-0.09,0.1-0.21,0.36-0.83,0.92c-0.82,0.73-1.99,1.51-3.25,2.03c-2.5,1.03-4.87,1.25-7.6-0.88c-4.18-3.27-5.6-7.16-3.81-11.78
	l8.02-19.4l14.53-12.19c5.51-4.63,6.39-12.91,1.96-18.58c-4.72-6.05-13.71-6.9-19.48-1.85L576.76,692.54z"/>
</svg>
